name C:\Users\u0101727\Documents\MyRepositories\upper-imu-dc\Results\main_tracking\Case_48\ABD01_linearAccelerations_groundFrame.mot
datacolumns 4
datarows 117
range 8.06000000 9.22000000
endheader 
time	radius_imu_x	radius_imu_y	radius_imu_z	
          8.06000000	         -2.11973627	          9.91574473	         -0.89794030	
          8.07000000	         -2.09820139	          9.95200726	         -0.88589663	
          8.08000000	         -2.05794398	          9.97989702	         -0.87331613	
          8.09000000	         -2.00057978	         10.00069272	         -0.86092534	
          8.10000000	         -1.92784702	         10.01550861	         -0.84920805	
          8.11000000	         -1.84160115	         10.02527400	         -0.83842390	
          8.12000000	         -1.74375588	         10.03075989	         -0.82865587	
          8.13000000	         -1.63616740	         10.03260363	         -0.81986318	
          8.14000000	         -1.52050702	         10.03130182	         -0.81191843	
          8.15000000	         -1.39818910	         10.02717165	         -0.80462142	
          8.16000000	         -1.27039425	         10.02031100	         -0.79770025	
          8.17000000	         -1.13816405	         10.01059402	         -0.79082064	
          8.18000000	         -1.00250891	          9.99770898	         -0.78361662	
          8.19000000	         -0.86449127	          9.98121574	         -0.77573856	
          8.20000000	         -0.72528694	          9.96059776	         -0.76690335	
          8.21000000	         -0.58623828	          9.93531836	         -0.75693492	
          8.22000000	         -0.44888023	          9.90489821	         -0.74578972	
          8.23000000	         -0.31490502	          9.86900284	         -0.73356673	
          8.24000000	         -0.18605225	          9.82752538	         -0.72050457	
          8.25000000	         -0.06395006	          9.78064396	         -0.70696654	
          8.26000000	          0.05004809	          9.72881500	         -0.69341807	
          8.27000000	          0.15500455	          9.67270049	         -0.68040901	
          8.28000000	          0.25043249	          9.61314425	         -0.66856552	
          8.29000000	          0.33621849	          9.55120623	         -0.65857074	
          8.30000000	          0.41248742	          9.48819017	         -0.65112074	
          8.31000000	          0.47945031	          9.42562609	         -0.64686028	
          8.32000000	          0.53726740	          9.36519847	         -0.64631666	
          8.33000000	          0.58596187	          9.30861989	         -0.64984940	
          8.34000000	          0.62541075	          9.25747722	         -0.65762494	
          8.35000000	          0.65539715	          9.21309871	         -0.66961310	
          8.36000000	          0.67567205	          9.17648775	         -0.68559668	
          8.37000000	          0.68599077	          9.14834634	         -0.70518768	
          8.38000000	          0.68613278	          9.12917334	         -0.72785163	
          8.39000000	          0.67593073	          9.11939375	         -0.75294379	
          8.40000000	          0.65530818	          9.11946570	         -0.77975074	
          8.41000000	          0.62430797	          9.12991034	         -0.80752601	
          8.42000000	          0.58311077	          9.15122923	         -0.83551596	
          8.43000000	          0.53206172	          9.18371708	         -0.86297997	
          8.44000000	          0.47170874	          9.22723103	         -0.88921173	
          8.45000000	          0.40282242	          9.28101424	         -0.91356835	
          8.46000000	          0.32640738	          9.34366688	         -0.93550431	
          8.47000000	          0.24373264	          9.41325155	         -0.95460569	
          8.48000000	          0.15638207	          9.48750539	         -0.97060797	
          8.49000000	          0.06627481	          9.56408148	         -0.98338966	
          8.50000000	         -0.02437233	          9.64076244	         -0.99294182	
          8.51000000	         -0.11313057	          9.71563100	         -0.99932205	
          8.52000000	         -0.19747035	          9.78720217	         -1.00260473	
          8.53000000	         -0.27488405	          9.85451780	         -1.00283988	
          8.54000000	         -0.34301735	          9.91718386	         -1.00003182	
          8.55000000	         -0.39981238	          9.97532150	         -0.99414629	
          8.56000000	         -0.44365776	         10.02941780	         -0.98514669	
          8.57000000	         -0.47351980	         10.08009204	         -0.97305255	
          8.58000000	         -0.48901469	         10.12784541	         -0.95800233	
          8.59000000	         -0.49040317	         10.17289062	         -0.94029376	
          8.60000000	         -0.47852673	         10.21514829	         -0.92036952	
          8.61000000	         -0.45472768	         10.25441844	         -0.89873887	
          8.62000000	         -0.42073878	         10.29063936	         -0.87586152	
          8.63000000	         -0.37850012	         10.32409710	         -0.85203666	
          8.64000000	         -0.32996583	         10.35548283	         -0.82732791	
          8.65000000	         -0.27702070	         10.38577745	         -0.80153661	
          8.66000000	         -0.22151857	         10.41603204	         -0.77421688	
          8.67000000	         -0.16536030	         10.44714837	         -0.74472146	
          8.68000000	         -0.11052521	         10.47972535	         -0.71228108	
          8.69000000	         -0.05899483	         10.51397883	         -0.67613084	
          8.70000000	         -0.01257909	         10.54972109	         -0.63568342	
          8.71000000	          0.02727914	         10.58636305	         -0.59073272	
          8.72000000	          0.05963853	         10.62288960	         -0.54165364	
          8.73000000	          0.08405331	         10.65785739	         -0.48951496	
          8.74000000	          0.10043002	         10.68954094	         -0.43600938	
          8.75000000	          0.10890171	         10.71621087	         -0.38321143	
          8.76000000	          0.10983946	         10.73637048	         -0.33329163	
          8.77000000	          0.10392256	         10.74884262	         -0.28830963	
          8.78000000	          0.09210003	         10.75278506	         -0.25010516	
          8.79000000	          0.07535370	         10.74777268	         -0.22023375	
          8.80000000	          0.05433209	         10.73393603	         -0.19992903	
          8.81000000	          0.02907089	         10.71202189	         -0.19010394	
          8.82000000	         -0.00100518	         10.68332221	         -0.19134359	
          8.83000000	         -0.03675091	         10.64950076	         -0.20383562	
          8.84000000	         -0.07869427	         10.61236548	         -0.22724588	
          8.85000000	         -0.12643013	         10.57377440	         -0.26050129	
          8.86000000	         -0.17853066	         10.53585433	         -0.30144046	
          8.87000000	         -0.23307864	         10.50125185	         -0.34658335	
          8.88000000	         -0.28819027	         10.47287227	         -0.39143250	
          8.89000000	         -0.34205544	         10.45309964	         -0.43131888	
          8.90000000	         -0.39281036	         10.44308067	         -0.46234970	
          8.91000000	         -0.43850165	         10.44247103	         -0.48206666	
          8.92000000	         -0.47710886	         10.44968443	         -0.48963861	
          8.93000000	         -0.50667447	         10.46251096	         -0.48554895	
          8.94000000	         -0.52550613	         10.47875700	         -0.47104140	
          8.95000000	         -0.53230469	         10.49664056	         -0.44758222	
          8.96000000	         -0.52623757	         10.51492076	         -0.41647149	
          8.97000000	         -0.50700432	         10.53286286	         -0.37861852	
          8.98000000	         -0.47490320	         10.55011148	         -0.33450309	
          8.99000000	         -0.43088325	         10.56651027	         -0.28433971	
          9.00000000	         -0.37654008	         10.58192321	         -0.22837806	
          9.01000000	         -0.31402171	         10.59613677	         -0.16717169	
          9.02000000	         -0.24587041	         10.60887117	         -0.10168136	
          9.03000000	         -0.17483952	         10.61985069	         -0.03320772	
          9.04000000	         -0.10369652	         10.62887377	          0.03678115	
          9.05000000	         -0.03503606	         10.63585512	          0.10684959	
          9.06000000	          0.02885708	         10.64083842	          0.17575792	
          9.07000000	          0.08609038	         10.64399441	          0.24256666	
          9.08000000	          0.13521823	         10.64562388	          0.30669943	
          9.09000000	          0.17528137	         10.64615675	          0.36796279	
          9.10000000	          0.20581978	         10.64610994	          0.42646702	
          9.11000000	          0.22683153	         10.64599319	          0.48243615	
          9.12000000	          0.23865679	         10.64620667	          0.53600046	
          9.13000000	          0.24181664	         10.64696228	          0.58708183	
          9.14000000	          0.23689020	         10.64822476	          0.63539813	
          9.15000000	          0.22449032	         10.64969417	          0.68058275	
          9.16000000	          0.20534560	         10.65087169	          0.72241893	
          9.17000000	          0.18046211	         10.65118304	          0.76109206	
          9.18000000	          0.15126344	         10.65009282	          0.79730902	
          9.19000000	          0.11959590	         10.64716136	          0.83218086	
          9.20000000	          0.08755758	         10.64203924	          0.86689136	
          9.21000000	          0.05714358	         10.63444962	          0.90232888	
          9.22000000	          0.02981993	         10.62415815	          0.93877826	
